<svg viewBox="30.599999999999998 14.989406779661016 570 264.4131355932203" xmlns="http://www.w3.org/2000/svg" version="1.2" style="max-height: 500px" width="570" height="264.4131355932203">
	<title>VERZ2NAZAD2-cropped-svg</title>
	<style>
		.s0 { fill: #000000 } 
	</style>
	<g id="Layer_1">
		<path d="m-413.6 17.8h-22.7l-28.6 75.6h22.1l5.4-16.2h24.8l5.4 16.2h22.2zm-18.3 42.7l6.8-21.6h0.4l6.8 21.6zm647-720.5h-31.3l-38.2 100.8 2.4 3.6h26.8l7.5-22.4h34.3l7.5 22.4h30.6zm-25.4 58.9l9.4-29.8h0.6l9.4 29.8zm-676.7 174.2h-48.8v-27.1h115.8v-59.7h-184.6v253.4h117.6c53.9 0 90.5-35.8 90.5-83.2 0-47.4-36.5-83.4-90.5-83.4zm-3.6 106.8h-45.2v-47.1h45.2c14.5 0 25.3 10.9 25.3 23.5 0 12.6-10.8 23.6-25.3 23.6zm247.9-193.7h-114v253.4h68.8v-76h45.2c56.1 0 94.1-38 94.1-88.7 0-50.7-38-88.7-94.1-88.7zm-3.6 115.9h-41.6v-54.3h41.6c16.3 0 29 12.7 29 27.1 0 14.5-12.7 27.2-29 27.2zm260.6-115.9h-76l-95.9 253.4h74.2l18.1-54.3h83.2l18.1 54.3h74.2zm-61.5 143l22.8-72.4h1.4l22.8 72.4zm323.4-195.2l17.9-18.6c0.7 1 1.8 2.1 2.8 3 1.8 1.6 4.6 3 8.4 3 7.6 0 12.7-5.1 12.7-12.7v-68.7h28.3v68.6c0 23.1-15.7 38.8-38.8 38.8-10.9 0-18.5-3.3-23.7-6.7-3-2-5.5-4.2-7.6-6.7zm-435.5 10.4h-24.7v-104.4h28.3v57.4l44.8-57.4h24.6v104.4h-28.3v-57.4zm237.1 0h-28.3v-104.4h28.3v40.3l34.3-40.3h32.9l-37.3 43.3 37.9 57.6-1.4 3.6h-29.1l-26.1-39.6-11.2 12.7zm-141.7-72.3v-32.1h28.3v32.1c0 10.6 5.8 16.4 16.4 16.4 4.8 0 8.9-1 11.8-2.2 1.6-0.6 3.3-1.3 4.6-2.2v-44.1h28.3v104.4h-28.3v-35c-1.9 0.9-4 1.6-6.4 2.2-4 1.2-9.5 2.2-16 2.2-23 0-38.7-15.5-38.7-41.7zm208.1 72.3l1.4-3.6 2.4 3.6zm381.1-35l-35.8-69.4h31.3l19.1 43.3h0.6l16.1-43.3h31.3l-36.5 77.6c-8.4 17.3-19.2 28.3-38 28.3-4.2 0-7.5-0.4-9.8-1-1.3-0.4-2.5-0.7-3.6-1.2v-25.4c0.7 0.3 1.5 0.6 2.5 0.7 1.8 0.4 3.9 0.7 6.4 0.7 9 0 13.4-4.3 15.7-8.9zm-74.6 35h-81.3v-104.4h79.8v25.4h-51.5v14.9h39.5v23.9h-39.5v14.9h53zm-724.9 0h-28.3v-104.4h28.3v38h38v-38h28.3v104.4h-28.3v-39.5h-38zm-147.7 0h-81.3v-104.4h79.8v25.4h-51.5v14.9h39.5v23.9h-39.5v14.9h53zm4.5 0l33.6-54.4-30.6-50h31.3l17.6 31.3h0.6l17.6-31.3h31.3l-30.6 50 33.6 54.4h-31.3l-20.6-35.8h-0.6l-20.6 35.8zm-158.1-79h-29.1v-25.4h86.5v25.4h-29.1v79.1h-28.3zm814.5 854.1h-6.4v-3.6h15.3v-7.9h-24.3v33.4h15.4c7.1 0 11.9-4.7 11.9-11 0-6.2-4.8-10.9-11.9-10.9zm2.9 10.9c0 0.2 0 0.4-0.1 0.6-0.1 0.2-0.1 0.4-0.2 0.6-0.5 1.1-1.7 1.9-3.1 1.9h-6v-6.2h6c1.2 0 2.2 0.6 2.8 1.4 0.1 0.2 0.2 0.3 0.3 0.5q0.3 0.6 0.3 1.2zm31-23.3c-10.7 0-18.6 7.9-18.6 17.6 0 9.8 7.9 17.6 18.6 17.6 10.7 0 18.6-7.9 18.6-17.6 0-9.7-7.9-17.6-18.6-17.6zm7.7 22.9c-0.3 0.5-0.7 1-1.1 1.4-0.7 0.7-1.5 1.3-2.4 1.7-1.3 0.6-2.7 1-4.2 1-1.6 0-3.2-0.4-4.5-1.1-1.6-0.8-2.9-2.1-3.7-3.7-0.7-1.3-1.1-2.8-1.1-4.5 0-5.2 4.1-9.3 9.3-9.3 3.4 0 6.4 1.8 8 4.5 0.8 1.4 1.3 3 1.3 4.8 0 1.9-0.6 3.7-1.6 5.2zm-125.7-22.9c-10.7 0-18.6 7.9-18.6 17.6 0 9.8 7.9 17.6 18.6 17.6 10.7 0 18.6-7.9 18.6-17.6 0-9.7-8-17.6-18.6-17.6zm9.3 17.6c0 1.6-0.4 3.2-1.1 4.5-0.9 1.6-2.1 2.9-3.7 3.7-1.3 0.7-2.8 1.1-4.5 1.1-1.6 0-3.2-0.4-4.5-1.1-1.6-0.8-2.9-2.1-3.7-3.7-0.7-1.3-1.1-2.8-1.1-4.5 0-5.2 4.1-9.3 9.3-9.3 5.2 0 9.3 4.1 9.3 9.3zm184.6-407.9h-19.1v48.7h19.1c15 0 26-11.2 26-24.4-0.1-13.1-11-24.3-26-24.3zm-0.5 35.7h-3.5v-22.3h3.5c6.5 0 10.9 4.5 10.9 11.2 0 6.6-4.4 11.1-10.9 11.1zm-248.2-37.1c-15.6 0-27 11.5-27 25.8 0 14.3 11.4 25.8 27 25.8 15.6 0 27-11.5 27-25.8 0-14.3-11.3-25.8-27-25.8zm0 37.7c-6.5 0-11.5-5.1-11.5-11.8 0-6.7 5-11.8 11.5-11.8 6.7 0 11.7 5.1 11.7 11.8 0 6.7-5.2 11.8-11.7 11.8zm-7.3 46.1c-15.6 0-26.9 11.6-26.9 25.9 0 14.3 11.2 25.6 26.9 25.6 15.7 0 27-11.5 27-25.8 0-14.3-11.4-25.7-27-25.7zm0 37.7c-6.5 0-11.5-5.1-11.5-11.9 0-6.7 5-11.8 11.5-11.8 6.5 0 11.5 5.1 11.5 11.8 0 6.8-5 11.9-11.5 11.9zm385.2 308.3l-45.2 31.9 44.4-31.4zm-165.8-37.2h-15v33.4h9.1v-10h6c7.4 0 12.4-5 12.4-11.7-0.1-6.7-5.1-11.7-12.5-11.7zm2.3 14.2c-0.3 0.3-0.6 0.5-1 0.7-0.1 0.1-0.3 0.1-0.4 0.2-0.4 0.1-0.9 0.2-1.3 0.2h-5.5v-7.2h5.5c2.1 0 3.8 1.7 3.8 3.6 0 1-0.5 1.9-1.1 2.5zm-63.4-321.6h-17.5l-17.3 48.9h16.4l2.7-9.5h14l2.7 9.5h16.4zm-12.6 28.7l3.8-13.7h0.3l3.8 13.7zm-185.8 2.8c1.4-0.9 2.6-1.9 3.8-3.3 1.8-2.2 3.8-5.6 3.8-10.7 0-9.8-7.4-17.5-18.1-17.5h-23.5v49h15.3v-14h5.2l6.8 14h16zm-12.2-9.8h-6.5v-8.4h6.5c2.7 0 4.4 1.7 4.4 4.2 0 2.5-1.6 4.2-4.4 4.2zm109.4-21.7h-22.5v48.9h15.3v-13.2h7.1c10.9 0 18.4-7.8 18.4-17.8 0-10-7.3-17.9-18.3-17.9zm-1.7 22.3h-5.5v-9h5.5c2.7 0 4.7 2 4.7 4.5 0 2.5-1.9 4.5-4.7 4.5zm385-80.8c-1.7-1.1-3.3-1.7-5.3-2.2v-0.3c1.5-0.5 2.9-1.1 4.1-1.9 2.1-1.4 4.1-3.9 4.1-8.4 0-6.4-6.2-12.6-17.5-12.6h-22.2v48.9h23.7c12.3 0 18.4-6.4 18.4-13.7 0-5-2.6-8.1-5.3-9.8zm-17.3-13.5c3 0 4.4 1.4 4.4 3.6 0 2.2-1.4 3.6-4.4 3.6v-0.2h-4.1v-7zm1.9 25.3h-6.2v-8.4h6.2c3 0 4.7 1.7 4.7 4.2 0.1 2.4-1.6 4.2-4.7 4.2zm-10.8 45.3c-15.6 0-27 11.5-27 25.8 0 14.3 11.4 25.8 27 25.8 15.6 0 27-11.5 27-25.8 0-14.4-11.4-25.8-27-25.8zm0 37.7c-6.5 0-11.5-5.1-11.7-11.9 0-6.7 5.2-11.8 11.7-11.8 6.5 0 11.5 5.1 11.5 11.8 0 6.7-5 11.9-11.5 11.9zm-59.2-120.1h-19.1v48.7h19.1c15 0 26-11.2 26-24.4 0-13.1-10.9-24.3-26-24.3zm-0.3 35.7h-3.5v-22.3h3.5c6.5 0 10.9 4.5 10.9 11.2 0 6.6-4.4 11.1-10.9 11.1zm-491.3 61h-22.5v5.9h17v11.2h-17v5.9h23.2v12.9h-38.6v-48.7h-0.2 38zm-168.3 1.4h-12.6v34.6h-15.3v-34.6h-0.2-12.6v-14.3h40.7zm518-49.2l-17.8-23.4v23.4h-15.3v-48.9h13.4l17.8 23.4v-23.4h15.3v48.9zm-175.8-17.7v-13.6h-0.1 38v13.7h-37.9zm246.9 190.3c0-0.2 0-0.4 0.1-0.7 0-0.3 0.1-0.6 0.2-0.8 0.1-0.3 0.2-0.6 0.3-0.8 0.2-0.5 0.5-0.9 0.8-1.3 0.3-0.4 0.6-0.7 1-1l0.1-0.1c0.1-0.1 0.2-0.2 0.4-0.2 0.1 0 0.1-0.1 0.2-0.1 0.1 0 0.2-0.1 0.3-0.1q0.2 0 0.3 0c0 0 0 0 0.1 0 0.1 0 0.3 0.1 0.7 0.2 0.5 0.2 1 0.6 1.7 1.1 1.7 1.2 3.7 2.8 6.1 4.4 1.6 1 3.2 1.9 5 2.7 0.3 0.1 0.5 0.2 0.8 0.3 0.8 0.3 1.7 0.6 2.5 0.7 1.6 0.3 3.2 0.3 4.8 0.1 0.4-0.1 0.8-0.2 1.1-0.3 0.3-0.1 0.7-0.2 1-0.4 0.8-0.4 1.7-1 2.6-1.7 5.9-5.3 7-21.3 7.2-24.4l-5.8-0.3c-0.4 6.8-2.2 17.7-5.3 20.4-0.5 0.5-0.9 0.7-1.1 0.8-0.1 0.1-0.2 0.1-0.4 0.1-0.1 0-0.2 0.1-0.4 0.1-0.9 0.2-1.8 0.1-2.6 0-0.5-0.1-1-0.3-1.5-0.5-0.2-0.1-0.3-0.1-0.5-0.2-1.4-0.6-2.8-1.4-4.2-2.3-2.3-1.5-4.3-3-5.9-4.2-1-0.8-1.9-1.3-2.8-1.7-0.8-0.4-1.6-0.6-2.4-0.7-0.2 0-0.5 0-0.7 0-0.8 0-1.5 0.1-2.2 0.4-0.3 0.1-0.6 0.2-0.9 0.4-0.2 0.1-0.3 0.2-0.5 0.3-0.3 0.2-0.7 0.4-1 0.7-0.1 0.1-0.2 0.2-0.3 0.2-0.7 0.6-1.4 1.3-1.9 2.1-0.6 0.8-1 1.6-1.4 2.4-0.2 0.5-0.4 1-0.5 1.5-0.1 0.5-0.3 1-0.3 1.5-0.1 0.4-0.1 0.8-0.1 1.1 0 0.2 0 0.5 0 0.7 0 0.3 0 0.5 0 0.8 0 0.4 0 0.7 0 1.1 0 0.5 0.1 1.1 0.2 1.7 0.1 0.5 0.2 1 0.3 1.6q0.2 0.8 0.3 1.5l0.2 0.9c0.2 0.8 0.3 1.5 0.5 2.3q0.3 1.2 0.3 2.1c0 0.3 0 0.7 0 1q0 0.3 0 0.6c0 0.2 0 0.3-0.1 0.5 0 0.2-0.1 0.4-0.1 0.6 0 0.1 0 0.1-0.1 0.2 0 0.1-0.1 0.3-0.2 0.4-0.2 0.3-0.4 0.7-0.6 1-0.1 0.2-0.3 0.3-0.5 0.5-0.2 0.1-0.3 0.3-0.5 0.4-0.2 0.1-0.4 0.3-0.7 0.4-0.3 0.2-0.7 0.3-1.1 0.4-1.7 0.5-5 0.7-11-0.9-0.8-0.2-1.6-0.4-2.3-0.5-1.1-0.2-2.1-0.2-3.2-0.2-0.6 0-1.2 0.1-1.8 0.2-2.7 0.6-5.3 2.4-7.4 5.2-0.8 1-1.4 2.2-1.9 3.5q-0.7 2-0.9 4.2c-0.1 0.5-0.1 1.1-0.1 1.7l5.8-0.1c0-0.4 0-0.7 0-1.1 0.1-1 0.3-2 0.6-2.8 0.3-0.8 0.6-1.5 1.1-2 0.9-1.2 2.3-2.6 4-3 0.3-0.1 0.6-0.1 0.9-0.1 0.6 0 1.3 0 1.9 0.1 0.6 0.1 1.2 0.2 1.8 0.4 5.8 1.5 10.5 1.8 14 0.9 0.7-0.2 1.4-0.4 2-0.7 0.5-0.3 1.1-0.6 1.5-0.9 0.4-0.3 0.8-0.6 1.2-1 0.3-0.3 0.6-0.6 0.9-1 0.6-0.7 1-1.4 1.4-2.2 0.1-0.3 0.3-0.6 0.4-0.9 0.1-0.2 0.1-0.3 0.2-0.5q0.2-0.6 0.3-1.2c0.1-0.3 0.1-0.7 0.2-1 0-0.4 0.1-0.7 0.1-1.1 0-0.5 0-1-0.1-1.6-0.1-0.9-0.2-1.8-0.4-2.8-0.2-0.8-0.4-1.6-0.5-2.4l-0.2-0.9c-0.1-0.4-0.2-0.9-0.3-1.3-0.1-0.5-0.2-0.9-0.2-1.3-0.1-0.4-0.1-0.9-0.1-1.3 0-0.3 0-0.5 0-0.8 0-0.2 0-0.3 0-0.5-0.5-0.3-0.5-0.4-0.4-0.5zm87.4 207.4l-37.8 26.7-13.4-45.4 17.6 10.2 26.9-87.1-62.1-12.1 33.8-122.6h49.5l-40.5 104.9 56.2 13.4-29.3 71.3-4.5 10.9-11.2 27.2zm-252.7-415.2h-22.5v7.3h17.2v12.6h-17.2v15.4h-15.3v-48.9h-0.2 38zm-145.6 31.9c-3.5 2.5-8.8 4.7-15.8 4.7-15.6 0-27-11.5-27-25.8 0-14.3 11.4-25.8 27-25.8 7 0 12.2 2.3 15.6 4.8 2 1.4 3.8 2.9 5.2 4.7l-9.3 10.1c-0.8-1.1-1.8-2-2.9-2.8-2-1.4-4.9-2.8-8.4-2.8-6.8 0-12 5.1-12 11.8 0 6.7 5.2 11.8 12 11.8 3.5 0 6.5-1.4 8.5-2.8 1.2-0.8 2.3-1.7 3.2-2.8l9.1 10.1c-1.3 1.7-3.1 3.4-5.2 4.8zm205.2 227.2v77.8h26.2v-77.8h28.4v77.8h26.2v-77.8h28.4v104.7h-137.6v-104.7zm43.4-538.2h-108.6v188.2h-68.8v-253.4h177.3v65.2zm53.4 399.4c-13.4 0-22.5-9.5-22.5-22v-28.2h15.3v28.2c0 4.2 3.3 7.6 7.1 7.6 3.8 0 7.1-3.4 7.1-7.6v-28.2h15.3v28.2c0.2 12.6-8.9 22-22.3 22zm-518.2-50.2h-0.2zm413.2-55.6c0 12.6-9.1 22-22.5 22-13.4 0-22.5-9.5-22.5-22v-28.2h15.3v28.2c0 4.2 3.3 7.6 7.1 7.6 3.8 0 7.1-3.4 7.1-7.6v-28.2h15.3zm-439.2 86.6h-14.3v17.8h-15.3v-48.9h15.3v17.1h14.3v-17.1h15.3v48.9h-15.3zm63.8-18.1h-22.5v5.9h17v11.2h-17v5.9h23.2v12.9h-38.6v-48.7h37.8zm287.9-12.9h38v12.9h-22.5v5.9h17v11.2h-17v5.9h23.2v12.9h-38.6v-48.7h-0.1zm112.7 25.4v23.4h-15.3v-48.9h13.4l17.8 23.4v-23.4h15.3v48.9h-13.4zm125.4-25.4l17.8 23.4v-23.4h15.3v48.9h-13.4l-17.8-23.4v23.4h-15.3v-48.9zm141.2 0l17.8 23.4v-23.4h15.3v48.9h-13.4l-17.8-23.4v23.4h-15.3v-48.9zm-134.7-70.9h-22.5v5.9h17.2v11.2h-17.2v5.9h23.2v12.9h-38.6v-48.7h-0.2 38zm108.1-343.5h59.7v253.4h-68.8v-139.4l-108.6 139.3h-59.7v-253.3h68.8v139.3zm42.6 330.7h16.7l-17 31.3v17.4h-15.3v-17.4l-17.2-31.3h16.7l7.9 18.5h0.3zm-113.7 83.7h15.3v48.9h-15.3zm-249.4 307.4h8.1v33.4h-9.1v-19.8l-9.3 11.7-9.3-11.7v19.8h-9.1v-33.4h8.1l10.3 12.9zm-84.3-20.7c-7.6 5.2-19 10-34 10-33.5 0-58.3-24.7-58.3-55.4 0-30.7 24.8-55.4 58.3-55.4 15 0 26 4.9 33.7 10.2 4.3 3 8.1 6.3 11.2 10l-17.2 19.4c-2.2-2.5-4.8-4.8-7.6-6.7-4.9-3.4-11.7-6.7-20-6.7-18.7 0-32.5 16.6-28.5 36 2.2 10.3 12.7 20.2 23.1 21.9 10.9 1.8 19.4-2.1 25.7-6.3 3-1.9 5.7-4.2 8.1-6.7l17.2 19.4c-3.3 3.9-7.2 7.3-11.7 10.3zm46.9 7.1v-79.3h-29.2v-25.4h86.8v25.4h-29.2v79.3zm-465.5-422.4h-309.9v211h309.9zm-217.2 66.7l2.6-8.2 2.6 8.2h8.4l-6.7 4.9 2.6 8.3-6.8-5.1-6.8 5.1 2.6-8.2-6.8-5zm-17.5 35.1h8.4l2.5-8.1 2.5 8.1h8.4l-6.8 5 2.6 8.2-6.8-5-6.8 5 2.6-8.3zm26.9 48.2l-6.8-5-6.8 5 2.5-8-6.8-5h8.4l2.5-8.1 2.5 8.1h8.4l-6.6 4.9zm15.8-109l2.6-8.2 2.6 8.2h8.4l-6.6 4.9 2.5 8.1-6.8-5-6.8 5 2.5-8-6.8-5zm9.4 134.8l-6.8-5-6.8 5 2.5-8-6.8-5h8.4l2.5-8.1 2.5 8.1h8.4l-6.6 4.9zm25.1-144.3l2.5-8.1 2.5 8.1h8.4l-6.8 5 2.5 8-6.7-4.9-6.7 4.9 2.5-8.1-6.6-4.9zm9.3 153.9l-6.7-5-6.7 5 2.6-8.3-6.7-4.9h8.2l2.6-8.2 2.6 8.2h8.4l-6.8 5zm25.2-144.4l2.6-8.2 2.6 8.2h8.4l-6.8 5 2.5 8-6.8-5-6.8 5 2.5-8.1-6.6-4.9zm9.2 134.8l-6.8-5-6.8 5 2.5-8.1-6.6-4.9h8.4l2.5-8.1 2.5 8.1h8.4l-6.8 5zm16-109.1l2.6-8.2 2.6 8.2h8.2l-6.7 4.9 2.6 8.3-6.7-5-6.7 5 2.6-8.2-6.8-5zm9.3 83.3l-6.7-4.9-6.7 4.9 2.5-8-6.8-5h8.4l2.5-8.1 2.5 8.1h8.3l-6.6 4.9zm9.2-35l-6.8-5-6.8 5 2.6-8.2-6.8-5h8.4l2.5-8.1 2.5 8.1h8.4l-6.7 4.9zm503.3 342.7l5.5 6.2c-1 1.2-2.3 2.3-3.7 3.2-2.4 1.7-6.1 3.2-10.8 3.2-10.7 0-18.6-7.9-18.6-17.6 0-9.8 7.9-17.6 18.6-17.6 4.8 0 8.3 1.6 10.7 3.2 1.4 1 2.6 2 3.6 3.2l-5.5 6.2q-1-1.2-2.4-2.1c-1.6-1.1-3.7-2.1-6.4-2.1-5.2 0-9.3 4.1-9.3 9.3 0 5.2 4.1 9.3 9.3 9.3 2.7 0 4.8-1 6.5-2.1 0.8-0.7 1.7-1.5 2.5-2.3zm-164.8-329.1h-0.2zm623.9 243.3c0 74.2-60.2 134.4-134.4 134.4-7.1 0-14-0.5-20.7-1.6l44.4-31.4 0.7-0.5 0.2-0.1c46.7-10.4 81.6-52.1 81.6-102 0-48.6-33.2-89.4-78.1-101.1l10.3-26.5c55.5 16.6 96 68 96 128.8zm-80.3 36.9l30.8-7.1c0 0 2.6 1.9 1.6 6.1-1.1 5.2-3.7 12.6-8 19.1-3.9 6.1-9.4 11.1-13.2 14.2-3.1 2.4-5.3 1.8-5.3 1.8zm-12.3-79.4c8.9 10.1 16.1 22.8 17.4 36 1.1 11.5-1.6 23.7-6.4 34.5-1 2.2-2 4.3-3.2 6.3-9.2 16.2-23.2 24.4-32 28.3l4.9-11.9q3.3-2 7.2-5.4c5.8-5.3 11.8-12.6 15.9-22 3-7 5-14.7 5.3-22.3 0.1-2.2 0-4.4-0.2-6.6-0.1-1.3-0.3-2.6-0.6-3.8-1.4-7.1-4.5-13.9-8.5-20.2-1.9-3-4.1-5.8-6.4-8.4-3.1-3.5-6.6-6.5-10.1-9.2-8.1-6.1-16-8.6-21.3-9.7l3.1-7.6c8.1 2.4 22.8 8.1 34.9 22zm-486.3-172.6c0 12.6-9.1 22-22.5 22-13.4 0-22.5-9.5-22.5-22v-28.2h15.2v28.2c0 4.2 3.3 7.6 7.1 7.6 3.8 0 7.1-3.4 7.1-7.6v-28.2h15.5zm405.3 322.2c3.2 5.5 4 21.4 4.1 23.2l-5.8 0.3c-0.3-6.3-1.5-17.4-3.3-20.6-0.2-0.4-0.4-0.7-0.6-0.8-0.1 0-0.1 0.1-0.2 0.1-0.8 0.5-1.7 1.1-2.5 1.8-3 2.6-6 5.1-9.1 7.1-1.1 0.7-2.1 1.2-3.2 1.6-1.2 0.4-2.5 0.7-3.7 0.9-0.6 0.1-1.1 0.1-1.7 0.1-1.5 0-3-0.1-4.3-0.4-1.4-0.3-2.6-0.8-3.7-1.4-3-1.8-5.1-4.1-6-6.8-0.2-0.6-0.3-1.2-0.5-1.7-0.2-1-0.3-2.1-0.2-3.2 0-0.8 0.1-1.6 0.2-2.4 0.9-6.2 0.2-9.4-0.4-11-0.2-0.4-0.3-0.7-0.5-1-0.2-0.2-0.3-0.5-0.5-0.6-0.2-0.2-0.3-0.3-0.5-0.5-0.2-0.1-0.4-0.3-0.5-0.4-0.3-0.2-0.7-0.4-1-0.5-0.1 0-0.3-0.1-0.4-0.1-0.1 0-0.1 0-0.2 0-0.2 0-0.4-0.1-0.6-0.1-0.2 0-0.3 0-0.5 0q-0.3 0-0.6 0c-0.3 0-0.7 0.1-1 0.2q-0.9 0.1-2.1 0.6c-0.7 0.2-1.4 0.5-2.2 0.8l-0.9 0.3c-0.5 0.2-1 0.3-1.4 0.5-0.5 0.2-1 0.3-1.5 0.4-0.6 0.1-1.1 0.3-1.7 0.4-0.4 0.1-0.7 0.1-1.1 0.2-0.3 0-0.5 0.1-0.8 0.1-0.2 0-0.5 0-0.7 0-0.4 0-0.8 0-1.1 0-0.5 0-1-0.1-1.5-0.2-0.5-0.1-1.1-0.2-1.6-0.4-0.9-0.3-1.8-0.6-2.6-1.1-0.8-0.5-1.6-1-2.3-1.7q-0.2-0.2-0.3-0.3c-0.3-0.3-0.5-0.6-0.8-0.9-0.1-0.2-0.2-0.3-0.3-0.5-0.2-0.3-0.4-0.6-0.5-0.9-0.3-0.7-0.5-1.4-0.6-2.2 0-0.2 0-0.5 0-0.7 0-0.8 0.1-1.6 0.4-2.4 0.3-0.9 0.7-1.9 1.4-3 1-1.7 2.2-3.9 3.5-6.3 0.7-1.4 1.3-2.9 1.8-4.4 0.1-0.2 0.1-0.4 0.2-0.5 0.1-0.5 0.2-1.1 0.3-1.6 0.1-0.9 0-1.7-0.3-2.6 0-0.1-0.1-0.2-0.1-0.3-0.1-0.1-0.1-0.2-0.2-0.4l4.9-3c0.2 0.3 0.4 0.6 0.5 0.9 0.2 0.4 0.3 0.7 0.4 1.1 0.5 1.6 0.6 3.2 0.5 4.8-0.1 0.8-0.2 1.7-0.5 2.6-0.1 0.3-0.1 0.5-0.2 0.8-0.6 1.8-1.3 3.6-2.1 5.2-1.3 2.6-2.6 4.8-3.6 6.6q-0.6 1-0.9 1.8c-0.1 0.4-0.1 0.6-0.1 0.7 0 0 0 0 0 0.1 0 0.1 0 0.2 0.1 0.3 0 0.1 0.1 0.2 0.2 0.3 0 0.1 0.1 0.1 0.1 0.2q0.1 0.2 0.3 0.3l0.1 0.1c0.3 0.3 0.7 0.6 1.1 0.8 0.5 0.3 0.9 0.5 1.4 0.6 0.3 0.1 0.6 0.2 0.9 0.2 0.3 0 0.6 0.1 0.8 0.1 0.2 0 0.4 0 0.7 0 0.1 0 0.3 0 0.4 0 0.2 0 0.3 0 0.5-0.1 0.2 0 0.5-0.1 0.8-0.1q0.6-0.2 1.2-0.3c0.4-0.1 0.8-0.2 1.3-0.4 0.4-0.1 0.8-0.3 1.2-0.4l0.9-0.3c0.8-0.3 1.5-0.5 2.3-0.8 1-0.3 1.9-0.6 2.7-0.7 0.5-0.1 1-0.2 1.6-0.2 0.4 0 0.7-0.1 1.1-0.1 0.4 0 0.7 0 1 0 0.4 0 0.8 0.1 1.2 0.2 0.2 0 0.3 0.1 0.5 0.1 0.3 0.1 0.6 0.2 1 0.3 0.8 0.3 1.6 0.7 2.3 1.1 0.4 0.2 0.7 0.5 1.1 0.8 0.4 0.3 0.7 0.7 1.1 1 0.4 0.4 0.7 0.9 1.1 1.4 0.4 0.6 0.7 1.2 1 1.9 1.4 3.3 1.6 8 0.8 14-0.1 0.6-0.1 1.2-0.2 1.8 0 0.7 0 1.3 0.1 1.9 0.1 0.3 0.1 0.6 0.2 0.9 0.6 1.7 2.2 2.9 3.4 3.7 0.6 0.3 1.3 0.6 2.1 0.8 0.8 0.2 1.8 0.3 2.8 0.3 0.3 0 0.7 0 1.1-0.1 0.8-0.1 1.6-0.3 2.5-0.6 0.6-0.2 1.3-0.6 2-1 2.8-1.8 5.6-4.1 8.4-6.6 1.1-1 2.3-1.8 3.5-2.5 0.5-0.3 1-0.5 1.5-0.7 1.3-0.4 4.5-0.9 7.1 3.5zm-2.4-235.4l-5.8 23.1zm123.1 80.2c1.6 3.6 0.5 5.5 0.5 5.5l-34.5-2.1 0.2-31.6c0 0 2.4-2.1 6.3-0.1 4.8 2.3 11.4 6.6 16.8 12.2 5.1 5.2 8.7 11.7 10.7 16.1zm-1017.7-30.5c2.5-1.2 4.6-2.8 6.5-4.7 3.3-3.3 6.5-8.6 6.5-16.8 0-14.6-11.4-25.9-27.5-25.9h-35.7v75.6h20.5v-23.7h11.3l12.4 23.7h21.6zm-15.7-14h-14v-15.1h14c4.9 0 8.1 3.2 8.1 7.6 0 4.3-3.2 7.5-8.1 7.5zm249.9 42.1v-44.8l-21 26.4-21-26.4v44.8h-20.6v-75.6h18.3l23.2 29.1 23.2-29.1h18.3v75.6zm-297.4 0h-58.8v-75.6h57.7v18.3h-37.2v10.9h28.6v17.3h-28.6v10.7h38.3zm222.9-22.1c0 13-11.2 24.3-29.7 24.3-10.4 0-17.7-3.1-22.8-6.5-2.9-1.8-5.4-4-7.4-6.5l11.9-13c1.3 1.5 2.8 2.9 4.4 4.1 2.9 2.1 6.9 4 11.8 4 6.5 0 9.7-3.1 9.7-6.5 0-10.3-35.6-5.9-35.6-32.4 0-11.9 10.8-23.2 28.6-23.2 9.2 0 15.8 2.7 20.1 5.4 2.5 1.6 4.6 3.3 6.4 5.4l-11.9 13c-1-1.1-2.1-2.1-3.3-2.9-2.2-1.6-5.3-3-9.1-3-6 0-8.6 2.7-8.6 5.4-0.1 10.2 35.5 5.9 35.5 32.4zm229.4 0c0-10.3-35.6-5.9-35.6-32.4 0-11.9 10.8-23.2 28.6-23.2 9.2 0 15.8 2.7 20.1 5.4 2.5 1.6 4.6 3.3 6.4 5.4l-11.9 13c-1-1.1-2.1-2.1-3.3-2.9-2.2-1.6-5.3-3-9.1-3-6 0-8.6 2.7-8.6 5.4 0 10.3 35.6 5.9 35.6 32.4 0 13-11.2 24.3-29.7 24.3-10.4 0-17.7-3.1-22.8-6.5-2.9-1.8-5.4-4-7.4-6.5l11.9-13c1.3 1.5 2.8 2.9 4.4 4.1 2.9 2.1 6.9 4 11.8 4 6.3-0.1 9.6-3.2 9.6-6.5zm62-17.9h16.7v16.7h-16.7v16.7h-16.2v-16.7h-16.7v-16.7h16.7v-16.7h16.2zm-145.2 42.1c-20.4 0-34.5-14-34.5-33.5v-44.3h20.5v44.3c0 8.6 5.9 14.6 14 14.6 8.1 0 14-5.9 14-14.6v-44.3h20.5v44.3c0.1 19.5-14.1 33.5-34.5 33.5zm-313.7 139.2v39.2h-113.1c0-74 69.6-76.2 69.6-103.4 0-7.6-6.5-14.1-15.2-14.1-7.6 0-12.8 3.7-16.1 7.2-2 2-3.5 4.4-4.6 7l-34.8-16.4c3-6.7 7.2-13.1 12.6-18.5 9.1-9.1 23.7-18.5 46.1-18.5 32.4 0 55.5 23.1 55.5 50 0 39.6-41.6 46.3-56.6 67.5zm87-117.4c-35.9 0-67.5 31.6-67.5 80.5 0 49 31.6 80.5 67.5 80.5 35.9 0 67.5-31.6 67.5-80.5 0-49-31.6-80.5-67.5-80.5zm0 122.9c-13.1 0-26.1-13.1-26.1-42.4 0-29.4 13.1-42.4 26.1-42.4 13.1 0 26.1 13.1 26.1 42.4 0 29.3-13 42.4-26.1 42.4zm196.9-5.5v39.2h-113.1c0-74 69.6-76.2 69.6-103.4 0-7.6-6.5-14.1-15.2-14.1-7.6 0-12.8 3.7-16.1 7.2-2 2-3.5 4.4-4.6 7l-34.8-16.3c3-6.7 7.2-13.1 12.6-18.5 9.1-9.1 23.7-18.5 46.1-18.5 32.4 0 55.5 23.1 55.5 50 0 39.6-41.6 46.3-56.6 67.5h56.6zm118.6-21.7v-91.4h-45.7l-64.2 85.9v42.5h68.5v23.9h41.3v-23.9h16.3v-37zm-41.3 0h-31.6l31.6-42.4zm91.4 23.9c12.2 0 20.7 8.5 20.7 19.6 0 11.1-8.5 19.6-20.7 19.6-12.2 0-20.7-8.5-20.7-19.6 0-11.1 8.5-19.6 20.7-19.6z" class="s0" id="XMLID_1_"/>
	</g>
	<g id="Layer_2">
	</g>
</svg>